<svg width="414" height="896" viewBox="0 0 414 896" fill="none" xmlns="http://www.w3.org/2000/svg">
<g clip-path="url(#clip0)">
<rect width="414" height="896" fill="#060127"/>
<path d="M444 161.001C444 172.547 418.599 410.805 304 410.805C189.401 410.805 -14 396.621 -14 385.074C-14 373.528 40.9009 351.839 155.5 351.839C270.099 351.839 444 149.455 444 161.001Z" fill="#030018"/>
<path d="M415 895.704C415 888.533 389.599 740.543 275 740.543C160.401 740.543 -43 749.353 -43 756.525C-43 763.697 11.9009 777.169 126.5 777.169C241.099 777.169 415 902.876 415 895.704Z" fill="#030018"/>
<ellipse cx="200.5" cy="53.3132" rx="214.5" ry="153.313" fill="#030018"/>
<path d="M413 734.185C413 777.339 312.076 542.052 181.544 542.052C51.0116 542.052 0 572.362 0 529.208C0 486.053 105.817 451.07 236.35 451.07C366.882 451.07 413 691.031 413 734.185Z" fill="#030018"/>
</g>
<defs>
<clipPath id="clip0">
<rect width="414" height="896" fill="white"/>
</clipPath>
</defs>
</svg>
