<svg width="240" height="241" viewBox="0 0 240 241" fill="none" xmlns="http://www.w3.org/2000/svg">
<circle cx="120" cy="120" r="120" fill="url(#paint0_radial)"/>
<circle cx="114.5" cy="114.5" r="111.5" fill="#715355"/>
<ellipse cx="108" cy="108.5" rx="105" ry="105.5" fill="#885F5C"/>
<circle cx="100" cy="104" r="94" fill="#966864"/>
<path d="M222 182C222 203.815 155 245 117.5 240.5C60 238.5 30.5 200.5 15 179.5C15 157.685 60.8908 140 117.5 140C174.109 140 222 160.185 222 182Z" fill="#FFDBB9" fill-opacity="0.53"/>
<path d="M235.5 85.5C235.5 107.315 143.5 60.5 106 56C48.5 54 21.5 106.5 6 85.5C6 63.6848 47.5 -0.5 108.5 3.5C169.5 -8 221.5 39.5 235.5 85.5Z" fill="#FFDBB9" fill-opacity="0.53"/>
<path d="M239.5 138C239.5 159.815 176.5 99.5403 108 107.5C27 107.5 16.5 151 1 130C1 108.185 43.3908 87 100 87C156.609 87 239.5 116.185 239.5 138Z" fill="#FFDBB9" fill-opacity="0.53"/>
<ellipse cx="93.5" cy="179.5" rx="55.5" ry="27.5" fill="#A36F6B"/>
<ellipse cx="150" cy="45.5" rx="25" ry="10.5" fill="#A36F6B"/>
<ellipse cx="96.5" cy="180" rx="33.5" ry="18" fill="#BA8C62"/>
<ellipse cx="150.5" cy="46" rx="7.5" ry="4" fill="#BA8C62"/>
<defs>
<radialGradient id="paint0_radial" cx="0" cy="0" r="1" gradientUnits="userSpaceOnUse" gradientTransform="translate(120 120) rotate(90) scale(120)">
<stop stop-color="#FFC19E"/>
<stop offset="1" stop-color="#FFBD6F" stop-opacity="0.43"/>
</radialGradient>
</defs>
</svg>
