<svg width="246" height="246" viewBox="0 0 246 246" fill="none" xmlns="http://www.w3.org/2000/svg">
<circle cx="121" cy="121" r="120" fill="url(#paint0_radial)"/>
<path d="M230.017 62.9562C236.355 80.3708 190.332 84.0321 124.664 115.585C61.8673 138.441 9.15546 144.7 2.81707 127.286C-3.52133 109.871 48.5552 110.638 111.352 87.7822C174.148 64.9262 223.679 45.5416 230.017 62.9562Z" fill="#087BA9" fill-opacity="0.12"/>
<path d="M241.135 112.239C247.813 130.586 202.008 133.467 137.194 165.119C75.0646 187.732 22.6458 193.192 15.9679 174.845C9.29009 156.498 61.2205 158.374 123.35 135.761C185.48 113.148 234.457 93.892 241.135 112.239Z" fill="#087BA9" fill-opacity="0.12"/>
<path d="M217.175 175.239C223.853 193.586 189.945 192.137 144.514 216.734C100.25 232.845 61.6458 233.277 54.9679 214.93C48.2901 196.582 87.208 203.195 131.472 187.084C175.736 170.974 210.497 156.892 217.175 175.239Z" fill="#087BA9" fill-opacity="0.12"/>
<path d="M179.155 25.2392C185.833 43.5864 151.925 42.137 106.494 66.7343C62.2297 82.8451 23.6255 83.2769 16.9476 64.9297C10.2698 46.5825 49.1877 53.1952 93.4518 37.0844C137.716 20.9736 172.477 6.89197 179.155 25.2392Z" fill="#087BA9" fill-opacity="0.12"/>
<ellipse cx="72" cy="70.5" rx="19" ry="4.5" fill="white"/>
<ellipse cx="181" cy="89.5" rx="19" ry="4.5" fill="white"/>
<ellipse cx="85" cy="183.5" rx="25" ry="4.5" fill="white"/>
<defs>
<radialGradient id="paint0_radial" cx="0" cy="0" r="1" gradientUnits="userSpaceOnUse" gradientTransform="translate(121 121) rotate(90) scale(120)">
<stop stop-color="#61D8F2"/>
<stop offset="1" stop-color="#10CCF5" stop-opacity="0.62"/>
</radialGradient>
</defs>
</svg>
