<svg width="327" height="299" viewBox="0 0 327 299" fill="none" xmlns="http://www.w3.org/2000/svg">
<path d="M319.5 178C319.5 207.637 300.552 235.749 269.951 256.822C239.464 277.817 198.454 291 157 291C115.797 291 78.3579 276.478 51.3121 254.209C24.219 231.902 8 202.251 8 172C8 142.006 25.5867 112.49 54.3878 90.1799C83.1089 67.9319 122.249 53.5 163.5 53.5C204.566 53.5 243.786 69.3073 272.695 93.0469C301.711 116.873 319.5 147.931 319.5 178Z" stroke="#FFA6F1" stroke-opacity="0.51" stroke-width="15"/>
<path d="M298 168.064C298 189.862 280.903 213.282 253.102 231.595C225.55 249.743 188.686 262 151.75 262C77.895 262 33 213.307 33 168.064C33 146.033 46.9507 125.387 70.9695 110.004C94.9326 94.6562 128.341 85 165.5 85C202.659 85 236.067 94.6562 260.031 110.004C284.049 125.387 298 146.033 298 168.064Z" stroke="#A437E7" stroke-opacity="0.6" stroke-width="10"/>
<circle cx="167" cy="120" r="120" fill="#FFAFF2"/>
<circle cx="164.5" cy="114.5" r="111.5" fill="#E69DDA"/>
<ellipse cx="162" cy="112.5" rx="109" ry="103.5" fill="#FFB0F2"/>
<circle cx="145" cy="96" r="84" fill="#FFBBF4"/>
<path d="M177.5 92.5C197 109 165.414 192 199.778 192C234.142 192 262 159.044 262 118.392C262 77.7389 243.36 34 208.996 34C174.632 34 159 80.5 177.5 92.5Z" fill="#835486" fill-opacity="0.1"/>
</svg>
