<svg width="410" height="877" viewBox="0 0 410 877" fill="none" xmlns="http://www.w3.org/2000/svg">
<ellipse cx="22.5985" cy="525.817" rx="3.22835" ry="2.97632" fill="white"/>
<ellipse cx="88.2415" cy="628.997" rx="3.22835" ry="2.97632" fill="white"/>
<ellipse cx="91.4698" cy="266.877" rx="3.22835" ry="2.97632" fill="white"/>
<ellipse cx="143.123" cy="733.168" rx="3.22835" ry="2.97632" fill="white"/>
<ellipse cx="146.352" cy="371.048" rx="3.22835" ry="2.97632" fill="white"/>
<ellipse cx="157.113" cy="785.75" rx="3.22835" ry="2.97632" fill="white"/>
<ellipse cx="297.008" cy="514.904" rx="3.22835" ry="2.97632" fill="white"/>
<ellipse cx="157.113" cy="498.038" rx="3.22835" ry="2.97632" fill="white"/>
<ellipse cx="292.703" cy="714.318" rx="3.22835" ry="2.97632" fill="white"/>
<ellipse cx="291.627" cy="237.114" rx="3.22835" ry="2.97632" fill="white"/>
<ellipse cx="232.441" cy="803.608" rx="3.22835" ry="2.97632" fill="white"/>
<ellipse cx="60.2625" cy="541.691" rx="1.07612" ry="0.992108" fill="white"/>
<ellipse cx="63.4908" cy="179.572" rx="1.07612" ry="0.992108" fill="white"/>
<ellipse cx="40.8924" cy="542.683" rx="1.07612" ry="0.992108" fill="white"/>
<ellipse cx="44.1208" cy="180.564" rx="1.07612" ry="0.992108" fill="white"/>
<ellipse cx="45.1968" cy="562.525" rx="1.07612" ry="0.992108" fill="white"/>
<ellipse cx="48.4252" cy="200.406" rx="1.07612" ry="0.992108" fill="white"/>
<ellipse cx="73.1758" cy="569.47" rx="1.07612" ry="0.992108" fill="white"/>
<ellipse cx="76.4042" cy="207.351" rx="1.07612" ry="0.992108" fill="white"/>
<ellipse cx="132.362" cy="567.486" rx="1.07612" ry="0.992108" fill="white"/>
<ellipse cx="135.591" cy="205.366" rx="1.07612" ry="0.992108" fill="white"/>
<ellipse cx="352.966" cy="573.439" rx="1.07612" ry="0.992108" fill="white"/>
<ellipse cx="356.194" cy="211.319" rx="1.07612" ry="0.992108" fill="white"/>
<ellipse cx="203.386" cy="567.486" rx="1.07612" ry="0.992108" fill="white"/>
<ellipse cx="206.614" cy="205.366" rx="1.07612" ry="0.992108" fill="white"/>
<ellipse cx="100.079" cy="592.289" rx="1.07612" ry="0.992108" fill="white"/>
<ellipse cx="103.307" cy="230.169" rx="1.07612" ry="0.992108" fill="white"/>
<ellipse cx="43.0446" cy="626.02" rx="1.07612" ry="0.992108" fill="white"/>
<ellipse cx="46.273" cy="263.901" rx="1.07612" ry="0.992108" fill="white"/>
<ellipse cx="1.07612" cy="654.791" rx="1.07612" ry="0.992108" fill="white"/>
<ellipse cx="4.30451" cy="292.672" rx="1.07612" ry="0.992108" fill="white"/>
<ellipse cx="8.60895" cy="771.86" rx="1.07612" ry="0.992108" fill="white"/>
<ellipse cx="11.8372" cy="801.623" rx="1.07612" ry="0.992108" fill="white"/>
<ellipse cx="11.8372" cy="409.741" rx="1.07612" ry="0.992108" fill="white"/>
<ellipse cx="31.2073" cy="722.255" rx="1.07612" ry="0.992108" fill="white"/>
<ellipse cx="81.7847" cy="683.563" rx="1.07612" ry="0.992108" fill="white"/>
<ellipse cx="22.5985" cy="691.499" rx="1.07612" ry="0.992108" fill="white"/>
<ellipse cx="6.45673" cy="719.279" rx="1.07612" ry="0.992108" fill="white"/>
<ellipse cx="34.4357" cy="360.135" rx="1.07612" ry="0.992108" fill="white"/>
<ellipse cx="61.3386" cy="820.474" rx="1.07612" ry="0.992108" fill="white"/>
<ellipse cx="9.685" cy="855.197" rx="1.07612" ry="0.992108" fill="white"/>
<ellipse cx="64.567" cy="458.354" rx="1.07612" ry="0.992108" fill="white"/>
<ellipse cx="54.8819" cy="871.071" rx="1.07612" ry="0.992108" fill="white"/>
<ellipse cx="58.1103" cy="508.952" rx="1.07612" ry="0.992108" fill="white"/>
<ellipse cx="67.7952" cy="781.781" rx="1.07612" ry="0.992108" fill="white"/>
<ellipse cx="71.0236" cy="419.662" rx="1.07612" ry="0.992108" fill="white"/>
<ellipse cx="79.6325" cy="856.189" rx="1.07612" ry="0.992108" fill="white"/>
<ellipse cx="82.8609" cy="494.07" rx="1.07612" ry="0.992108" fill="white"/>
<ellipse cx="140.971" cy="820.474" rx="1.07612" ry="0.992108" fill="white"/>
<ellipse cx="144.2" cy="458.354" rx="1.07612" ry="0.992108" fill="white"/>
<ellipse cx="207.69" cy="875.039" rx="1.07612" ry="0.992108" fill="white"/>
<ellipse cx="210.919" cy="512.92" rx="1.07612" ry="0.992108" fill="white"/>
<ellipse cx="185.092" cy="847.26" rx="1.07612" ry="0.992108" fill="white"/>
<ellipse cx="188.32" cy="485.141" rx="1.07612" ry="0.992108" fill="white"/>
<ellipse cx="293.779" cy="807.576" rx="1.07612" ry="0.992108" fill="white"/>
<ellipse cx="297.008" cy="445.457" rx="1.07612" ry="0.992108" fill="white"/>
<ellipse cx="306.693" cy="829.403" rx="1.07612" ry="0.992108" fill="white"/>
<ellipse cx="309.921" cy="467.283" rx="1.07612" ry="0.992108" fill="white"/>
<ellipse cx="229.213" cy="839.324" rx="1.07612" ry="0.992108" fill="white"/>
<ellipse cx="232.441" cy="477.204" rx="1.07612" ry="0.992108" fill="white"/>
<ellipse cx="343.281" cy="855.197" rx="1.07612" ry="0.992108" fill="white"/>
<ellipse cx="346.509" cy="493.078" rx="1.07612" ry="0.992108" fill="white"/>
<ellipse cx="164.646" cy="615.107" rx="1.07612" ry="0.992108" fill="white"/>
<ellipse cx="167.874" cy="252.988" rx="1.07612" ry="0.992108" fill="white"/>
<ellipse cx="229.213" cy="594.273" rx="1.07612" ry="0.992108" fill="white"/>
<ellipse cx="232.441" cy="232.153" rx="1.07612" ry="0.992108" fill="white"/>
<ellipse cx="323.911" cy="637.926" rx="1.07612" ry="0.992108" fill="white"/>
<ellipse cx="327.139" cy="275.806" rx="1.07612" ry="0.992108" fill="white"/>
<ellipse cx="405.695" cy="737.136" rx="1.07612" ry="0.992108" fill="white"/>
<ellipse cx="408.924" cy="375.017" rx="1.07612" ry="0.992108" fill="white"/>
<ellipse cx="385.249" cy="649.831" rx="1.07612" ry="0.992108" fill="white"/>
<ellipse cx="388.478" cy="287.711" rx="1.07612" ry="0.992108" fill="white"/>
<ellipse cx="77.4803" cy="732.176" rx="1.07612" ry="0.992108" fill="white"/>
<ellipse cx="80.7087" cy="370.056" rx="1.07612" ry="0.992108" fill="white"/>
<ellipse cx="101.155" cy="720.271" rx="1.07612" ry="0.992108" fill="white"/>
<ellipse cx="104.383" cy="358.151" rx="1.07612" ry="0.992108" fill="white"/>
<ellipse cx="147.428" cy="682.57" rx="1.07612" ry="0.992108" fill="white"/>
<ellipse cx="150.656" cy="320.451" rx="1.07612" ry="0.992108" fill="white"/>
<ellipse cx="97.9265" cy="752.018" rx="1.07612" ry="0.992108" fill="white"/>
<ellipse cx="101.155" cy="389.899" rx="1.07612" ry="0.992108" fill="white"/>
<ellipse cx="168.95" cy="722.255" rx="1.07612" ry="0.992108" fill="white"/>
<ellipse cx="172.178" cy="360.135" rx="1.07612" ry="0.992108" fill="white"/>
<ellipse cx="205.538" cy="742.097" rx="1.07612" ry="0.992108" fill="white"/>
<ellipse cx="208.766" cy="379.977" rx="1.07612" ry="0.992108" fill="white"/>
<ellipse cx="293.779" cy="661.736" rx="1.07612" ry="0.992108" fill="white"/>
<ellipse cx="297.008" cy="299.617" rx="1.07612" ry="0.992108" fill="white"/>
<ellipse cx="218.451" cy="771.86" rx="1.07612" ry="0.992108" fill="white"/>
<ellipse cx="221.68" cy="409.741" rx="1.07612" ry="0.992108" fill="white"/>
<ellipse cx="304.541" cy="772.852" rx="1.07612" ry="0.992108" fill="white"/>
<ellipse cx="307.769" cy="410.733" rx="1.07612" ry="0.992108" fill="white"/>
<ellipse cx="376.64" cy="690.507" rx="1.07612" ry="0.992108" fill="white"/>
<ellipse cx="379.869" cy="328.388" rx="1.07612" ry="0.992108" fill="white"/>
<ellipse cx="318.53" cy="725.231" rx="1.07612" ry="0.992108" fill="white"/>
<ellipse cx="321.758" cy="363.112" rx="1.07612" ry="0.992108" fill="white"/>
<ellipse cx="345.433" cy="822.458" rx="1.07612" ry="0.992108" fill="white"/>
<ellipse cx="348.661" cy="460.338" rx="1.07612" ry="0.992108" fill="white"/>
<ellipse cx="202.31" cy="656.776" rx="1.07612" ry="0.992108" fill="white"/>
<ellipse cx="205.538" cy="294.656" rx="1.07612" ry="0.992108" fill="white"/>
<ellipse cx="261.496" cy="615.107" rx="1.07612" ry="0.992108" fill="white"/>
<ellipse cx="264.724" cy="252.988" rx="1.07612" ry="0.992108" fill="white"/>
<ellipse cx="336.824" cy="615.107" rx="1.07612" ry="0.992108" fill="white"/>
<ellipse cx="340.052" cy="252.988" rx="1.07612" ry="0.992108" fill="white"/>
<ellipse cx="283.018" cy="558.557" rx="1.07612" ry="0.992108" fill="white"/>
<ellipse cx="286.247" cy="196.437" rx="1.07612" ry="0.992108" fill="white"/>
<ellipse cx="99.0026" cy="791.702" rx="1.07612" ry="0.992108" fill="white"/>
<ellipse cx="102.231" cy="429.583" rx="1.07612" ry="0.992108" fill="white"/>
<ellipse cx="101.155" cy="825.434" rx="1.07612" ry="0.992108" fill="white"/>
<ellipse cx="104.383" cy="463.315" rx="1.07612" ry="0.992108" fill="white"/>
<ellipse cx="18.294" cy="602.21" rx="1.07612" ry="0.992108" fill="white"/>
<ellipse cx="21.5223" cy="240.09" rx="1.07612" ry="0.992108" fill="white"/>
<ellipse cx="162.493" cy="2.97632" rx="3.22835" ry="2.97632" fill="white"/>
<ellipse cx="176.483" cy="55.5581" rx="3.22835" ry="2.97632" fill="white"/>
<ellipse cx="251.811" cy="73.416" rx="3.22835" ry="2.97632" fill="white"/>
<ellipse cx="27.9789" cy="41.6686" rx="1.07612" ry="0.992108" fill="white"/>
<ellipse cx="76.4042" cy="139.887" rx="1.07612" ry="0.992108" fill="white"/>
<ellipse cx="33.3596" cy="144.848" rx="1.07612" ry="0.992108" fill="white"/>
<ellipse cx="87.1654" cy="51.5896" rx="1.07612" ry="0.992108" fill="white"/>
<ellipse cx="99.0026" cy="125.998" rx="1.07612" ry="0.992108" fill="white"/>
<ellipse cx="160.341" cy="90.2819" rx="1.07612" ry="0.992108" fill="white"/>
<ellipse cx="227.06" cy="144.848" rx="1.07612" ry="0.992108" fill="white"/>
<ellipse cx="204.462" cy="117.069" rx="1.07612" ry="0.992108" fill="white"/>
<ellipse cx="313.15" cy="77.3844" rx="1.07612" ry="0.992108" fill="white"/>
<ellipse cx="326.063" cy="99.2108" rx="1.07612" ry="0.992108" fill="white"/>
<ellipse cx="248.583" cy="109.132" rx="1.07612" ry="0.992108" fill="white"/>
<ellipse cx="362.651" cy="125.006" rx="1.07612" ry="0.992108" fill="white"/>
<ellipse cx="96.8504" cy="1.98423" rx="1.07612" ry="0.992108" fill="white"/>
<ellipse cx="117.297" cy="21.8264" rx="1.07612" ry="0.992108" fill="white"/>
<ellipse cx="224.908" cy="11.9053" rx="1.07612" ry="0.992108" fill="white"/>
<ellipse cx="237.821" cy="41.6686" rx="1.07612" ry="0.992108" fill="white"/>
<ellipse cx="323.911" cy="42.6606" rx="1.07612" ry="0.992108" fill="white"/>
<ellipse cx="364.803" cy="92.2661" rx="1.07612" ry="0.992108" fill="white"/>
<ellipse cx="118.373" cy="61.5107" rx="1.07612" ry="0.992108" fill="white"/>
<ellipse cx="120.525" cy="95.2424" rx="1.07612" ry="0.992108" fill="white"/>
</svg>
