<svg width="240" height="240" viewBox="0 0 240 240" fill="none" xmlns="http://www.w3.org/2000/svg">
<circle cx="120" cy="120" r="120" fill="url(#paint0_linear)"/>
<ellipse cx="116" cy="114.5" rx="111" ry="111.5" fill="url(#paint1_radial)"/>
<circle cx="95" cy="93" r="81" fill="url(#paint2_linear)"/>
<path d="M125.016 70.9844C132.281 70.9844 139.969 71.2422 148.078 71.7578C156.188 72.2734 164.625 73.2812 173.391 74.7812V129.203H132.75V142H115.594V114.578H156.094V88.9844C150.422 88.1875 145.078 87.6484 140.062 87.3672C135.094 87.0391 130.125 86.875 125.156 86.875C120.844 86.875 117.117 86.9453 113.977 87.0859C110.836 87.2266 108.07 87.4141 105.68 87.6484C103.289 87.8359 101.203 88.0703 99.4219 88.3516C97.6406 88.5859 96 88.7969 94.5 88.9844V99.6719H77.0625V74.7812C85.9219 73.2812 94.3594 72.2734 102.375 71.7578C110.391 71.2422 117.938 70.9844 125.016 70.9844ZM124.031 154.656C125.719 154.656 127.383 154.797 129.023 155.078C130.664 155.359 132.141 155.781 133.453 156.344C134.766 156.906 135.82 157.633 136.617 158.523C137.414 159.414 137.812 160.469 137.812 161.688V171.953C137.812 173.078 137.414 174.039 136.617 174.836C135.82 175.633 134.766 176.289 133.453 176.805C132.141 177.32 130.664 177.695 129.023 177.93C127.383 178.164 125.719 178.281 124.031 178.281C122.344 178.281 120.68 178.164 119.039 177.93C117.398 177.695 115.922 177.32 114.609 176.805C113.297 176.289 112.242 175.633 111.445 174.836C110.648 174.039 110.25 173.078 110.25 171.953V161.688C110.25 160.469 110.648 159.414 111.445 158.523C112.242 157.633 113.297 156.906 114.609 156.344C115.922 155.781 117.398 155.359 119.039 155.078C120.68 154.797 122.344 154.656 124.031 154.656Z" fill="#E06C00" fill-opacity="0.37"/>
<ellipse cx="114" cy="213" rx="18" ry="6" fill="#E68022"/>
<ellipse cx="113.5" cy="213" rx="12.5" ry="3" fill="#D77B26"/>
<ellipse cx="199.5" cy="76.5" rx="15.5" ry="23.5" transform="rotate(-30 199.5 76.5)" fill="#E78022"/>
<ellipse cx="199.191" cy="76.2045" rx="13.5" ry="19" transform="rotate(-30 199.191 76.2045)" fill="#D77B26"/>
<ellipse cx="54.5" cy="75.5" rx="20.5" ry="19.5" fill="#E68022"/>
<ellipse cx="54" cy="74" rx="14" ry="13" fill="#D77B26"/>
<defs>
<linearGradient id="paint0_linear" x1="120" y1="0" x2="188" y2="218" gradientUnits="userSpaceOnUse">
<stop stop-color="#D8771F" stop-opacity="0.96"/>
<stop offset="0.991836" stop-color="#F78C0F"/>
</linearGradient>
<radialGradient id="paint1_radial" cx="0" cy="0" r="1" gradientUnits="userSpaceOnUse" gradientTransform="translate(193 175.5) rotate(-135.71) scale(199.773 198.877)">
<stop stop-color="#FDC694" stop-opacity="0.13"/>
<stop offset="1" stop-color="#E06C00"/>
</radialGradient>
<linearGradient id="paint2_linear" x1="30" y1="-25" x2="143" y2="145.5" gradientUnits="userSpaceOnUse">
<stop stop-color="#E06C00"/>
<stop offset="1" stop-color="#F4A241"/>
</linearGradient>
</defs>
</svg>
