<svg width="240" height="240" viewBox="0 0 240 240" fill="none" xmlns="http://www.w3.org/2000/svg">
<circle cx="120" cy="120" r="120" fill="#005CC8"/>
<ellipse cx="118" cy="119" rx="115" ry="113" fill="#174780"/>
<ellipse cx="112" cy="113" rx="108" ry="107" fill="#1F74D8"/>
<circle cx="103.5" cy="91.5" r="85.5" fill="#4E9EFB"/>
<path d="M163.5 209.5C163.5 219.717 152.5 222.5 138 220C125.5 216.5 122.5 216 128.5 208.5C114.5 198 123.364 197 138 197C152.635 197 163.5 199.283 163.5 209.5Z" fill="#128000" fill-opacity="0.75"/>
<path d="M208 122.5C208 151.771 174.755 166.48 161.5 166.48C148.245 166.48 128.5 112.02 170 122.5C183.5 117 122.5 84.5 152.5 64.4803C165.755 64.4803 208 93.2289 208 122.5Z" fill="#128000" fill-opacity="0.75"/>
<path d="M78.5324 117.5C53.0324 135.5 140.632 181.5 110.532 181.5C80.4329 181.5 0.532433 161 39.0324 108.5C-3.96758 117.5 -4.96754 61.5 53.0325 34C83.132 34 92.0324 94.5 78.5324 117.5Z" fill="#128000" fill-opacity="0.75"/>
</svg>
