<svg width="240" height="240" viewBox="0 0 240 240" fill="none" xmlns="http://www.w3.org/2000/svg">
<circle cx="120" cy="120" r="120" fill="#FF8616"/>
<circle cx="120" cy="121" r="115" fill="#41270F" fill-opacity="0.46"/>
<circle cx="119" cy="115" r="110" fill="#FF8617"/>
<circle cx="99.5" cy="99.5" r="87.5" fill="#FF922D"/>
<path d="M220 160C220 165.523 179.005 172.5 123.5 172.5C67.9954 172.5 19 165.523 19 160C19 154.477 71.9954 160 127.5 160C183.005 160 220 154.477 220 160Z" fill="#F4A241"/>
<path d="M188.762 162.537C177.582 177.657 144.796 113.204 117.5 140.5C90.2043 167.796 58.8539 162.344 55.7763 159.267C52.6987 156.189 80.7043 161.796 108 134.5C135.296 107.204 185.685 159.459 188.762 162.537Z" fill="#F4A241"/>
<path d="M217 64.9999C217 67.7613 173.795 73 120.5 73C67.2045 73 22.5 63.7614 22.5 61C16.5 55 67.2045 64.9999 120.5 64.9999C173.795 64.9999 217 62.2385 217 64.9999Z" fill="#F4A241"/>
<path d="M227 93.5C227 95.433 184.467 97 132 97C79.5329 97 44.567 89.5 46.5 89.5C161.5 89.5 104 84 108 83C160.467 83 227 91.567 227 93.5Z" fill="#F4A241"/>
<path d="M184 202.5C184 206.642 159.376 210 129 210C98.6243 210 74 206.642 74 202.5C74 198.358 98.6243 208 129 208C159.376 208 184 198.358 184 202.5Z" fill="#F4A241"/>
<path d="M136.5 41C122.5 25.5 110.196 16 87 16C63.804 16 56 30.8513 56 24.5C56 18.1487 74.804 13 98 13C121.196 13 136.5 34.6487 136.5 41Z" fill="#F4A241"/>
</svg>
